<svg width="100%" height="100%" viewBox="0 0 200 200" xmlns="http://www.w3.org/2000/svg">
  <defs>
    <linearGradient id="logoGradient" x1="0%" y1="0%" x2="100%" y2="100%">
      <stop offset="0%" style="stop-color:#07d4f3;stop-opacity:1" />
      <stop offset="100%" style="stop-color:#00bfff;stop-opacity:1" />
    </linearGradient>
  </defs>
  <path fill="url(#logoGradient)" d="M160,100c0,44.183-35.817,80-80,80S0,144.183,0,100,35.817,20,80,20,160,55.817,160,100ZM30,100c0,27.614,22.386,50,50,50s50-22.386,50-50-22.386-50-50-50-50,22.386-50,50Z"/>
  <path fill="#12121c" d="M120,115V85h-15v7h-22.5c-6.892,0-12.5,5.608-12.5,12.5s5.608,12.5,12.5,12.5H105v7Z"/>
</svg>